<svg xmlns="http://www.w3.org/2000/svg" xmlns:xlink="http://www.w3.org/1999/xlink" version="1.1" x="0px" y="0px" viewBox="0 0 100 125" enable-background="new 0 0 100 100" xml:space="preserve"><g><defs><rect id="b" width="100" height="100"/></defs><clipPath id="a"><use xlink:href="#b" overflow="visible"/></clipPath><path clip-path="url(#a)" d="M14.043457,35.2431641c0-1.3769531-1.1162109-2.4931641-2.4931641-2.4931641   s-2.4931641,1.1162109-2.4931641,2.4931641s1.1162109,2.4926758,2.4931641,2.4926758S14.043457,36.6201172,14.043457,35.2431641    M11.4414062,34.0249023c-0.019043,0.0073242-0.0400391,0.0161133-0.0639648,0.0239258   c-0.1000977,0.0371094-0.2241211,0.0913086-0.3393555,0.1572266c-0.1157227,0.0649414-0.2167969,0.1469727-0.3105469,0.1948242   c-0.090332,0.0522461-0.1743164,0.0791016-0.1743164,0.0791016l-0.0361328,0.012207   c-0.1616211,0.0507812-0.3339844-0.0380859-0.3857422-0.1992188c-0.0151367-0.0478516-0.0180664-0.0981445-0.0102539-0.144043   c0,0,0.019043-0.1157227,0.1171875-0.2480469c0.0458984-0.0678711,0.1142578-0.1357422,0.1948242-0.1987305   c0.0820312-0.0620117,0.1772461-0.1152344,0.2763672-0.1621094c0.0996094-0.0439453,0.2036133-0.078125,0.3027344-0.0981445   c0.1000977-0.0209961,0.1943359-0.0288086,0.2739258-0.0288086c0.0390625,0,0.0800781,0.0019531,0.1152344,0.0048828   c0.0371094,0.0019531,0.0629883,0.0058594,0.0800781,0.0102539c0.0390625,0.0097656,0.0610352,0.0146484,0.0610352,0.0146484   c0.1518555,0.0371094,0.2446289,0.1889648,0.2080078,0.3413086c-0.0244141,0.0996094-0.1000977,0.1748047-0.1923828,0.2026367   c0,0-0.0209961,0.0073242-0.0595703,0.019043C11.4775391,34.0097656,11.4575195,34.0170898,11.4414062,34.0249023"/><path clip-path="url(#a)" d="M83.9033203,77.3974609c-2.9951172,0-5.421875,2.0507812-5.421875,4.5800781   c0,2.5302734,2.4267578,4.5800781,5.421875,4.5800781c2.9941406,0,5.421875-2.0498047,5.421875-4.5800781   C89.3251953,79.4482422,86.8974609,77.3974609,83.9033203,77.3974609 M83.3671875,79.3808594   c0,0-0.0732422,0.0146484-0.2041016,0.0400391c-0.0322266,0.0058594-0.0683594,0.0117188-0.1074219,0.0185547   c-0.0322266,0.0097656-0.0664062,0.0214844-0.1035156,0.0332031c-0.0712891,0.0205078-0.1523438,0.0400391-0.2460938,0.0800781   c-0.0458984,0.0175781-0.09375,0.0351562-0.1425781,0.0527344c-0.0478516,0.0224609-0.0966797,0.0449219-0.1474609,0.0693359   c-0.0507812,0.0224609-0.1015625,0.0478516-0.1503906,0.0800781c-0.0507812,0.0273438-0.1025391,0.0566406-0.1542969,0.0859375   c-0.0976562,0.0703125-0.2021484,0.1367188-0.2958984,0.21875c-0.1005859,0.0742188-0.1855469,0.1689453-0.2783203,0.2558594   c-0.0771484,0.0996094-0.1689453,0.1865234-0.2363281,0.2910156c-0.078125,0.0957031-0.1308594,0.2060547-0.1943359,0.3046875   c-0.0478516,0.1074219-0.1123047,0.203125-0.1513672,0.3046875c-0.0205078,0.0498047-0.0439453,0.0966797-0.0664062,0.1435547   c-0.0195312,0.0478516-0.0371094,0.09375-0.0537109,0.1396484c-0.0410156,0.0878906-0.0693359,0.1728516-0.0957031,0.2490234   c-0.0126953,0.0371094-0.0273438,0.0722656-0.0419922,0.1064453c-0.0097656,0.0332031-0.0166016,0.0654297-0.0263672,0.0927734   c-0.0371094,0.1142578-0.0673828,0.1826172-0.0673828,0.1826172l-0.0185547,0.0429688   c-0.0703125,0.1601562-0.2568359,0.2324219-0.4160156,0.1630859c-0.0908203-0.0400391-0.1533203-0.1181641-0.1777344-0.2060547   c0,0-0.0224609-0.0820312-0.0458984-0.2304688c-0.0126953-0.0751953-0.0214844-0.1660156-0.0185547-0.2695312   c0-0.1054688-0.0009766-0.2255859,0.0224609-0.3525391c0.0107422-0.0634766,0.0205078-0.1318359,0.0341797-0.2011719   c0.0195312-0.0664062,0.0380859-0.1367188,0.0615234-0.2089844c0.0371094-0.1455078,0.1132812-0.2841797,0.1816406-0.4335938   c0.0859375-0.1386719,0.1689453-0.2871094,0.2783203-0.4199219c0.0996094-0.1396484,0.2197266-0.265625,0.3417969-0.3896484   c0.1318359-0.1132812,0.2597656-0.2314453,0.4023438-0.3242188c0.1357422-0.1044922,0.2900391-0.1738281,0.4306641-0.2529297   c0.1494141-0.0625,0.2890625-0.1318359,0.4326172-0.1669922c0.0712891-0.0205078,0.1396484-0.0400391,0.2060547-0.0595703   c0.0673828-0.0136719,0.1328125-0.0244141,0.1962891-0.0351562c0.1230469-0.0234375,0.2470703-0.0322266,0.3544922-0.0371094   c0.0546875-0.0029297,0.1044922-0.0048828,0.1503906-0.0068359c0.0400391,0.0029297,0.0761719,0.0068359,0.1103516,0.0087891   c0.1318359,0.0117188,0.2070312,0.0185547,0.2070312,0.0185547c0.1699219,0.015625,0.2949219,0.1669922,0.2783203,0.3369141   C83.6025391,79.2451172,83.4980469,79.3544922,83.3671875,79.3808594 M84.5292969,79.3876953   c-0.0380859,0-0.0761719-0.0068359-0.1142578-0.0224609l-0.0195312-0.0078125   c-0.1582031-0.0595703-0.2373047-0.2373047-0.1767578-0.3945312c0.0595703-0.1582031,0.2363281-0.2382812,0.3955078-0.1777344   l0.0292969,0.0117188c0.1572266,0.0625,0.2333984,0.2412109,0.1708984,0.3974609   C84.7666016,79.3144531,84.6513672,79.3876953,84.5292969,79.3876953"/><path clip-path="url(#a)" d="M79.3964844,22.0957031c-1.2626953-0.3071289-2.5273438-0.4462891-3.7685547-0.4321289   v-0.0009766c-0.0068359,0-0.0126953,0-0.0185547,0.0009766c-0.4863281,0.0058594-0.9677734,0.0371094-1.4453125,0.0888672   c-13.2236328,0.6811523-12.6542969-3.4389648-18.5234375-8.7270508c-0.0830078-0.0756836-0.1679688-0.1499023-0.2519531-0.2250977   c-0.1025391-0.0888672-0.2050781-0.1777344-0.3115234-0.2675781c-1.5429688-1.2734375-3.3896484-2.2270508-5.4638672-2.7324219   c-6.9609375-1.6967773-13.9726562,2.2612305-16.2099609,8.9321289l-0.0048828,0.0019531   c-1.3652344,3.8330078-2.6591797,5.7041016-7.4082031,6.8100586c-2.5737305,0.472168-4.7597656,2.4052734-5.4189453,5.1123047   c-0.171875,0.7026367-0.2270508,1.4067383-0.1796875,2.0927734c0.0317383,3.262207,2.1699219,6.1948242-2.7143555,9.1611328   c-0.1518555,0.0839844-0.3017578,0.1708984-0.449707,0.2617188c-0.0053711,0.0029297-0.0092773,0.0053711-0.0141602,0.0083008   l0.0009766,0.0009766c-2.5927734,1.5976562-4.5820312,4.1767578-5.3598633,7.3696289   c-1.3442383,5.5141602,1.3608398,11.0649414,6.2109375,13.5297852l-0.0019531,0.0009766   c0.0297852,0.015625,0.059082,0.0292969,0.0878906,0.0439453c0.1040039,0.0517578,0.2080078,0.1025391,0.3139648,0.1513672   c4.3442383,2.0839844,9.152832,3.6132812,7.8789062,11.5361328c-0.0209961,0.1123047-0.0375977,0.2236328-0.0527344,0.3359375   c-0.0019531,0.0078125-0.0029297,0.015625-0.0039062,0.0253906l0.0009766-0.0009766   c-0.4379883,3.3720703,1.7216797,6.6054688,5.1030273,7.4287109c1.1547852,0.2822266,2.3129883,0.2470703,3.3828125-0.046875   v0.0009766c0.0019531-0.0009766,0.0029297-0.0009766,0.0048828-0.0019531   c0.4101562-0.1132812,0.8081055-0.2646484,1.1870117-0.4501953c7.6782227-2.7910156,10.3178711-1.0068359,14.1254883,3.4873047   c0.1855469,0.2363281,0.3779297,0.46875,0.5800781,0.6923828c0.0029297,0.0029297,0.0048828,0.0058594,0.0078125,0.0097656   c1.6972656,1.875,3.9560547,3.2783203,6.5976562,3.9228516c7.0283203,1.7128906,14.1132812-2.5966797,15.8251953-9.6230469   c0.0410156-0.1669922,0.0751953-0.3349609,0.1083984-0.5019531l0.0117188,0.0097656   c0.0078125-0.0576172,0.015625-0.1132812,0.0234375-0.1699219c0.0751953-0.3935547,0.1279297-0.7851562,0.1669922-1.1757812   c0.8369141-5.7060547,1.7451172-7.9238281,8.0429688-6.3886719l-0.0214844-0.0302734   c3.4384766,0.5429688,6.7753906-1.6337891,7.6152344-5.0761719c0.5097656-2.0957031-0.0185547-4.1992188-1.2529297-5.7744141   c-0.1015625-0.1289062-0.2050781-0.2548828-0.3154297-0.3759766c-2.5341797-3.0878906-5.9394531-9.0332031-1.0175781-13.5786133   h-0.0029297c1.9238281-1.9013672,3.3603516-4.3413086,4.0478516-7.1611328   C92.4863281,32.2553711,87.5117188,24.0737305,79.3964844,22.0957031 M33.3173828,80.7304688   c-0.0371094,0.0810547-0.0981445,0.1435547-0.1708984,0.1826172c0,0-0.1669922,0.0917969-0.4399414,0.1132812   c-0.1362305,0.0166016-0.2963867,0.0078125-0.465332-0.0205078c-0.1679688-0.03125-0.3417969-0.0859375-0.5117188-0.1533203   c-0.0830078-0.0361328-0.1660156-0.0751953-0.2451172-0.1181641c-0.0800781-0.0390625-0.1518555-0.0908203-0.2231445-0.1357422   c-0.1396484-0.0966797-0.2607422-0.2001953-0.3540039-0.296875c-0.0458984-0.0458984-0.0908203-0.0966797-0.1279297-0.140625   c-0.0400391-0.0458984-0.065918-0.0820312-0.0830078-0.1083984c-0.0371094-0.0576172-0.059082-0.0898438-0.059082-0.0898438   c-0.1108398-0.1748047-0.0610352-0.40625,0.1132812-0.5175781c0.1289062-0.0830078,0.2890625-0.0771484,0.4086914,0.0029297   c0,0,0.0332031,0.0224609,0.090332,0.0605469c0.0288086,0.0214844,0.0610352,0.0429688,0.0917969,0.0576172   c0.0322266,0.0195312,0.0649414,0.0400391,0.1098633,0.0644531c0.168457,0.0986328,0.3959961,0.2109375,0.6333008,0.2880859   c0.0600586,0.0175781,0.1181641,0.0400391,0.1777344,0.0537109c0.059082,0.0166016,0.1191406,0.0253906,0.175293,0.0410156   c0.1137695,0.0234375,0.2207031,0.0498047,0.3149414,0.0732422c0.09375,0.0234375,0.1748047,0.046875,0.2329102,0.0644531   s0.0932617,0.0332031,0.0932617,0.0332031l0.0449219,0.0205078C33.3222656,80.296875,33.4091797,80.5322266,33.3173828,80.7304688    M50.625,14.4853516c-0.1298828,0.2753906-0.4082031,0.4311523-0.6948242,0.4179688c0,0-0.2055664-0.0097656-0.5629883-0.0375977   c-0.0869141-0.0053711-0.190918-0.0209961-0.2895508-0.0244141c-0.0942383,0.0024414-0.1962891,0.003418-0.3051758,0.0053711   c-0.1079102,0.0029297-0.2202148,0-0.3378906-0.0029297c-0.1220703,0.0019531-0.2573242,0.0136719-0.3920898,0.0205078   c-0.137207,0.0102539-0.2783203,0.012207-0.4243164,0.0263672c-0.1445312,0.0180664-0.2939453,0.0356445-0.4477539,0.0537109   c-0.1538086,0.0112305-0.3100586,0.0400391-0.4677734,0.0732422c-0.1582031,0.0327148-0.3203125,0.0498047-0.4824219,0.0898438   c-0.3227539,0.0869141-0.6567383,0.1542969-0.9829102,0.2749023c-0.3330078,0.090332-0.6508789,0.2451172-0.9750977,0.3681641   c-0.3139648,0.1538086-0.6298828,0.2958984-0.921875,0.4741211l-0.222168,0.125   c-0.0717773,0.0439453-0.1396484,0.0927734-0.2099609,0.1376953c-0.1386719,0.0942383-0.2788086,0.1801758-0.4116211,0.2734375   c-0.2490234,0.206543-0.5141602,0.3769531-0.7392578,0.5717773c-0.1147461,0.0952148-0.2368164,0.1767578-0.3491211,0.2641602   c-0.1098633,0.0888672-0.2119141,0.1796875-0.3198242,0.2587891c-0.2177734,0.1582031-0.4067383,0.3168945-0.5849609,0.4550781   c-0.0917969,0.0668945-0.1782227,0.1308594-0.262207,0.1879883c-0.074707,0.0629883-0.1499023,0.1191406-0.2158203,0.1699219   c-0.1401367,0.0991211-0.2490234,0.1811523-0.3339844,0.230957C39.6113281,18.9526367,39.5625,18.9785156,39.5625,18.9785156   l-0.0869141,0.0478516c-0.378418,0.2041016-0.8510742,0.0639648-1.0561523-0.3149414   c-0.0791016-0.1459961-0.105957-0.3061523-0.0878906-0.4599609c0,0,0.0058594-0.059082,0.0288086-0.1640625   c0.0180664-0.1088867,0.0610352-0.2587891,0.1132812-0.4570312c0.0297852-0.0957031,0.0615234-0.2041016,0.1025391-0.3188477   c0.0463867-0.1118164,0.1020508-0.2290039,0.1611328-0.355957c0.1240234-0.25,0.2651367-0.5380859,0.4741211-0.8110352   c0.097168-0.1430664,0.2089844-0.2841797,0.3208008-0.434082c0.125-0.1367188,0.2553711-0.2788086,0.3959961-0.4189453   c0.269043-0.2929688,0.6123047-0.5371094,0.9550781-0.7988281c0.1782227-0.1230469,0.3662109-0.2373047,0.5532227-0.3583984   c0.09375-0.0576172,0.1870117-0.1206055,0.284668-0.1748047c0.1000977-0.0517578,0.2011719-0.1030273,0.3022461-0.1547852   c0.203125-0.0991211,0.3999023-0.2163086,0.6137695-0.300293c0.2133789-0.0849609,0.4262695-0.1699219,0.6401367-0.2539062   c0.2148438-0.0791016,0.4370117-0.1401367,0.6552734-0.2050781c0.2177734-0.0688477,0.4399414-0.1157227,0.6606445-0.159668   c0.4389648-0.0991211,0.8803711-0.144043,1.3032227-0.1821289c0.2119141-0.0161133,0.4228516-0.0141602,0.6269531-0.0170898   s0.402832-0.0029297,0.597168,0.0170898c0.1928711,0.0170898,0.3798828,0.0336914,0.5610352,0.0498047   c0.1806641,0.0170898,0.3535156,0.0600586,0.5185547,0.0878906c0.1660156,0.0332031,0.3212891,0.059082,0.4731445,0.0952148   c0.1542969,0.0410156,0.300293,0.0800781,0.4350586,0.1220703c0.1337891,0.0410156,0.2587891,0.0791016,0.375,0.1137695   c0.1088867,0.0390625,0.1938477,0.0771484,0.277832,0.1123047c0.3286133,0.1430664,0.5151367,0.230957,0.5151367,0.230957   C50.640625,13.6865234,50.796875,14.121582,50.625,14.4853516 M51.8779297,15.7963867   c-0.3613281-0.2128906-0.4814453-0.6787109-0.2685547-1.0410156c0.2128906-0.3608398,0.6796875-0.4819336,1.0410156-0.269043   l0.0537109,0.0322266c0.3623047,0.2128906,0.4833984,0.6787109,0.2705078,1.0410156   c-0.1425781,0.2407227-0.3964844,0.3740234-0.65625,0.3740234c-0.1308594,0-0.2636719-0.0332031-0.3847656-0.1049805   L51.8779297,15.7963867z M54.0068359,83.5166016c-0.1933594,0.1679688-0.4316406,0.2509766-0.6679688,0.2509766   c-0.2822266,0-0.5634766-0.1171875-0.7636719-0.3447266l-0.0419922-0.0488281   C52.1640625,82.953125,52.2050781,82.3125,52.625,81.9433594c0.4228516-0.3701172,1.0625-0.328125,1.4316406,0.0917969   l0.0439453,0.0507812C54.4697266,82.5068359,54.4277344,83.1464844,54.0068359,83.5166016 M67.90625,84.1884766   c0,0-0.0224609,0.0478516-0.0722656,0.1337891c-0.046875,0.0878906-0.1259766,0.2060547-0.2265625,0.3623047   c-0.0527344,0.0742188-0.1113281,0.1591797-0.1787109,0.2460938c-0.0703125,0.0839844-0.1513672,0.1699219-0.2382812,0.2636719   c-0.1748047,0.1826172-0.3759766,0.3925781-0.6289062,0.5732422c-0.1220703,0.0976562-0.2558594,0.1894531-0.3935547,0.2900391   c-0.1435547,0.0869141-0.2939453,0.1767578-0.4511719,0.2607422c-0.3095703,0.1845703-0.6669922,0.3125-1.03125,0.4541016   C64.5,86.8369141,64.3085938,86.8896484,64.1162109,86.9492188c-0.0966797,0.0292969-0.1923828,0.0595703-0.2919922,0.0849609   c-0.0986328,0.0214844-0.1992188,0.0429688-0.2988281,0.0644531c-0.2021484,0.0400391-0.4023438,0.0917969-0.6083984,0.1201172   c-0.2050781,0.0244141-0.4111328,0.0507812-0.6171875,0.0761719c-0.2070312,0.0224609-0.4150391,0.0253906-0.6210938,0.0341797   c-0.2060547,0.0126953-0.4121094,0.0097656-0.6162109-0.0009766c-0.4072266-0.0087891-0.8046875-0.0556641-1.1875-0.1103516   c-0.1904297-0.0263672-0.3759766-0.0703125-0.5566406-0.109375c-0.1806641-0.0410156-0.3583984-0.078125-0.5253906-0.1337891   c-0.1679688-0.0507812-0.3320312-0.1005859-0.4892578-0.1484375C58.1455078,86.78125,58,86.7099609,57.8583984,86.6542969   c-0.1396484-0.0576172-0.2753906-0.1142578-0.4033203-0.1679688c-0.1298828-0.0634766-0.2519531-0.1230469-0.3642578-0.1835938   c-0.1123047-0.0595703-0.2177734-0.1152344-0.3144531-0.1660156c-0.0927734-0.0527344-0.1621094-0.1025391-0.2333984-0.1474609   c-0.2724609-0.1826172-0.4257812-0.2929688-0.4257812-0.2929688c-0.2978516-0.2128906-0.3671875-0.6269531-0.1533203-0.9248047   c0.1601562-0.2246094,0.4375-0.3193359,0.6914062-0.2587891c0,0,0.1835938,0.0429688,0.5009766,0.1279297   c0.078125,0.0185547,0.1689453,0.0517578,0.2578125,0.0703125C57.5,84.7265625,57.59375,84.7431641,57.6933594,84.7626953   c0.0996094,0.0166016,0.2021484,0.0410156,0.3095703,0.0644531c0.1152344,0.0175781,0.2363281,0.0351562,0.3623047,0.0546875   c0.2509766,0.0429688,0.5244141,0.0712891,0.8105469,0.0986328c0.1416016,0.0205078,0.2910156,0.0214844,0.4404297,0.0253906   c0.1513672,0.0009766,0.3017578,0.0205078,0.4580078,0.015625c0.15625-0.0039062,0.3134766-0.0068359,0.4726562-0.0068359   c0.1572266,0.0029297,0.3183594-0.0234375,0.4794922-0.03125c0.1611328-0.0068359,0.3232422-0.0195312,0.484375-0.046875   c0.1611328-0.0263672,0.3232422-0.0371094,0.4833984-0.0664062c0.3203125-0.0625,0.6396484-0.1191406,0.9472656-0.2080078   l0.2314453-0.0576172c0.0742188-0.0253906,0.1494141-0.0488281,0.2236328-0.0732422   c0.1474609-0.0488281,0.296875-0.0908203,0.4384766-0.1425781c0.2792969-0.1191406,0.5605469-0.2070312,0.8144531-0.3212891   c0.1279297-0.0546875,0.2597656-0.0957031,0.3828125-0.1445312c0.1220703-0.0498047,0.2392578-0.1035156,0.3574219-0.1445312   c0.2353516-0.0830078,0.4492188-0.171875,0.6455078-0.2451172c0.1005859-0.0341797,0.1943359-0.0673828,0.2841797-0.09375   c0.0849609-0.0351562,0.1660156-0.0625,0.2402344-0.0898438c0.1503906-0.0478516,0.2695312-0.0888672,0.3583984-0.1103516   c0.0849609-0.0234375,0.1357422-0.0332031,0.1357422-0.0332031l0.078125-0.0146484   c0.3857422-0.0722656,0.7558594,0.1806641,0.828125,0.5664062C67.9892578,83.9091797,67.9677734,84.0585938,67.90625,84.1884766    M87.5078125,34.9916992c-0.0097656,0.0996094-0.0175781,0.1928711-0.0244141,0.2788086   c-0.0097656,0.0830078-0.0234375,0.1518555-0.0341797,0.2177734c-0.0458984,0.2602539-0.0771484,0.4091797-0.0771484,0.4091797   c-0.0585938,0.2871094-0.3388672,0.4711914-0.6259766,0.4121094c-0.2177734-0.0458984-0.3759766-0.2182617-0.4140625-0.4238281   c0,0-0.0263672-0.1494141-0.0664062-0.4101562c-0.0117188-0.0649414-0.0185547-0.1411133-0.0322266-0.2138672   c-0.0146484-0.0712891-0.03125-0.1484375-0.0488281-0.2290039c-0.0185547-0.0820312-0.0332031-0.168457-0.0488281-0.2583008   c-0.0224609-0.0927734-0.0449219-0.1899414-0.0703125-0.2919922c-0.0458984-0.203125-0.1015625-0.4208984-0.1679688-0.6479492   c-0.0585938-0.2290039-0.1513672-0.4619141-0.2255859-0.7060547c-0.0947266-0.237793-0.1757812-0.487793-0.2890625-0.730957   c-0.0957031-0.2490234-0.2265625-0.4868164-0.3378906-0.730957c-0.1308594-0.2358398-0.2509766-0.4770508-0.3925781-0.7001953   c-0.1308594-0.2299805-0.2832031-0.440918-0.4189453-0.6518555c-0.1552734-0.1977539-0.2851562-0.4038086-0.4257812-0.5859375   c-0.1337891-0.190918-0.2597656-0.3710938-0.3769531-0.5380859c-0.1152344-0.1728516-0.2216797-0.3320312-0.3154297-0.4731445   c-0.0898438-0.1479492-0.1689453-0.2797852-0.2382812-0.3867188c-0.1298828-0.222168-0.1943359-0.3701172-0.1943359-0.3701172   l-0.0205078-0.0439453c-0.1269531-0.2851562,0.0019531-0.6191406,0.2871094-0.7460938   c0.1220703-0.0537109,0.2529297-0.0610352,0.3730469-0.0288086c0,0,0.1640625,0.0429688,0.4345703,0.1538086   c0.1367188,0.0551758,0.2929688,0.1352539,0.4638672,0.2392578c0.171875,0.1040039,0.3642578,0.2260742,0.5507812,0.3857422   c0.0966797,0.0771484,0.1933594,0.1611328,0.2929688,0.25c0.0917969,0.0942383,0.1894531,0.1899414,0.2851562,0.2949219   c0.0966797,0.1020508,0.1923828,0.2109375,0.2783203,0.3320312c0.0917969,0.1171875,0.1806641,0.2392578,0.2705078,0.3642578   c0.1640625,0.2597656,0.3466797,0.5209961,0.4931641,0.809082c0.1621094,0.2788086,0.2949219,0.5786133,0.4287109,0.8769531   c0.1201172,0.3037109,0.2402344,0.6079102,0.328125,0.9169922c0.0976562,0.3056641,0.1650391,0.6147461,0.2285156,0.9130859   c0.0517578,0.2998047,0.1015625,0.5888672,0.1191406,0.8666992c0.0244141,0.2768555,0.0449219,0.5380859,0.0361328,0.7802734   C87.5341797,34.5634766,87.5273438,34.7895508,87.5078125,34.9916992"/></g><text x="0" y="115" fill="#000000" font-size="5px" font-weight="bold" font-family="'Helvetica Neue', Helvetica, Arial-Unicode, Arial, Sans-serif">Created by Ryan Speziale</text><text x="0" y="120" fill="#000000" font-size="5px" font-weight="bold" font-family="'Helvetica Neue', Helvetica, Arial-Unicode, Arial, Sans-serif">from the Noun Project</text></svg>